<svg width="24" height="24" viewBox="0 0 24 24" xmlns="http://www.w3.org/2000/svg">
  <defs>
    <linearGradient id="truckGrad" x1="0%" y1="0%" x2="0%" y2="100%">
      <stop offset="0%" style="stop-color:#0BA6DF;stop-opacity:1" />
      <stop offset="100%" style="stop-color:#0284C7;stop-opacity:1" />
    </linearGradient>
  </defs>
  
  <g fill="url(#truckGrad)">
    <!-- Truck body -->
    <path d="M1 6V15H3C3 16.66 4.34 18 6 18S9 16.66 9 15H15C15 16.66 16.34 18 18 18S21 16.66 21 15H23V12L20 8H16V6C16 4.9 15.1 4 14 4H3C1.9 4 1 4.9 1 6Z"/>
    
    <!-- Truck cabin -->
    <rect x="2" y="5" width="12" height="8" rx="1"/>
    
    <!-- Truck cargo -->
    <rect x="16" y="9" width="4" height="4" rx="0.5"/>
    
    <!-- Wheels -->
    <circle cx="6" cy="15" r="2" fill="#333"/>
    <circle cx="6" cy="15" r="1" fill="#666"/>
    <circle cx="18" cy="15" r="2" fill="#333"/>
    <circle cx="18" cy="15" r="1" fill="#666"/>
  </g>
  
  <!-- Speed lines -->
  <g stroke="#0BA6DF" stroke-width="1" opacity="0.6">
    <line x1="0" y1="2" x2="4" y2="2"/>
    <line x1="0" y1="4" x2="6" y2="4"/>
    <line x1="0" y1="6" x2="4" y2="6"/>
  </g>
</svg>